<?xml version="1.0" encoding="UTF-8" standalone="no"?>
<svg
   xmlns:dc="http://purl.org/dc/elements/1.1/"
   xmlns:cc="http://creativecommons.org/ns#"
   xmlns:rdf="http://www.w3.org/1999/02/22-rdf-syntax-ns#"
   xmlns:svg="http://www.w3.org/2000/svg"
   xmlns="http://www.w3.org/2000/svg"
   xmlns:sodipodi="http://sodipodi.sourceforge.net/DTD/sodipodi-0.dtd"
   xmlns:inkscape="http://www.inkscape.org/namespaces/inkscape"
   version="1.1"
   id="Layer_1"
   x="0px"
   y="0px"
   width="100.22403"
   height="113.2476"
   viewBox="0 0 100.22403 113.2476"
   enable-background="new 0 0 100 100"
   xml:space="preserve"
   inkscape:version="0.48.2 r9819"
   sodipodi:docname="ic_cluster.svg"><metadata
   id="metadata3065"><rdf:RDF><cc:Work
       rdf:about=""><dc:format>image/svg+xml</dc:format><dc:type
         rdf:resource="http://purl.org/dc/dcmitype/StillImage" /><dc:title></dc:title></cc:Work></rdf:RDF></metadata><defs
   id="defs3063" /><sodipodi:namedview
   pagecolor="#ffffff"
   bordercolor="#666666"
   borderopacity="1"
   objecttolerance="10"
   gridtolerance="10"
   guidetolerance="10"
   inkscape:pageopacity="0"
   inkscape:pageshadow="2"
   inkscape:window-width="1440"
   inkscape:window-height="852"
   id="namedview3061"
   showgrid="true"
   inkscape:zoom="3.32"
   inkscape:cx="43.680431"
   inkscape:cy="74.408886"
   inkscape:window-x="0"
   inkscape:window-y="0"
   inkscape:window-maximized="1"
   inkscape:current-layer="Layer_1"
   fit-margin-top="0"
   fit-margin-left="0"
   fit-margin-right="0"
   fit-margin-bottom="0"><inkscape:grid
     type="xygrid"
     id="grid3847"
     empspacing="5"
     visible="true"
     enabled="true"
     snapvisiblegridlinesonly="true" /></sodipodi:namedview>
<g
   id="Captions"
   transform="translate(0.11115366,12.935099)">
</g>

<g
   id="g3055"
   transform="translate(0.112015,6.6238)"
   style="fill:#ff4444;fill-opacity:1;stroke:#000000;stroke-width:0.5;stroke-miterlimit:4;stroke-opacity:1;stroke-dasharray:none">
	<g
   id="g3057"
   style="fill:#ff4444;fill-opacity:1;stroke:#000000;stroke-width:0.5;stroke-miterlimit:4;stroke-opacity:1;stroke-dasharray:none">
		<path
   d="M 50,0 C 27.909,0 10,17.909 10,40 10,70 50,100 50,100 50,100 90,70 90,40 90,17.909 72.091,0 50,0 z"
   id="path3059"
   inkscape:connector-curvature="0"
   sodipodi:nodetypes="sscss"
   style="fill:#ff4444;fill-opacity:1;stroke:#000000;stroke-width:0.5;stroke-miterlimit:4;stroke-opacity:1;stroke-dasharray:none" />
	</g>
</g><g
   id="g4025"
   transform="matrix(0.58019053,0,0,0.58019053,21.289318,18.945314)"
   style="fill:#ffffff"><circle
     id="circle4003"
     r="9.3319998"
     cy="35.638"
     cx="49.676998"
     sodipodi:cx="49.676998"
     sodipodi:cy="35.638"
     sodipodi:rx="9.3319998"
     sodipodi:ry="9.3319998"
     d="m 59.008998,35.638 c 0,5.153922 -4.178079,9.332 -9.332,9.332 -5.153921,0 -9.332,-4.178078 -9.332,-9.332 0,-5.153921 4.178079,-9.331999 9.332,-9.331999 5.153921,0 9.332,4.178078 9.332,9.331999 z"
     style="fill:#ffffff" /><circle
     id="circle4005"
     r="7.7649999"
     cy="39.087002"
     cx="77.467003"
     sodipodi:cx="77.467003"
     sodipodi:cy="39.087002"
     sodipodi:rx="7.7649999"
     sodipodi:ry="7.7649999"
     d="m 85.232003,39.087002 c 0,4.288491 -3.476509,7.765 -7.765,7.765 -4.288491,0 -7.765,-3.476509 -7.765,-7.765 0,-4.288491 3.476509,-7.765 7.765,-7.765 4.288491,0 7.765,3.476509 7.765,7.765 z"
     style="fill:#ffffff" /><g
     id="g4007"
     style="fill:#ffffff">
	<path
   id="path4009"
   d="M 96.085,70.657 90.069,56.096 c -0.802,0.415 -1.298,0.516 -2.512,0.885 -0.938,0.273 -5.024,1.277 -14.509,1.277 -2.709,0 -4.978,-0.084 -6.876,-0.206 v 10.895 c 0,2.923 2.369,5.294 5.294,5.294 h 11.999 c 2.278,0 4.206,-1.449 4.952,-3.469 l 1.076,2.606 c 0.753,1.822 2.836,2.688 4.656,1.937 1.82,-0.751 2.688,-2.836 1.936,-4.658 z"
   inkscape:connector-curvature="0"
   style="fill:#ffffff" />
</g><circle
     id="circle4011"
     r="7.7639999"
     cy="39.087002"
     cx="21.889"
     sodipodi:cx="21.889"
     sodipodi:cy="39.087002"
     sodipodi:rx="7.7639999"
     sodipodi:ry="7.7639999"
     d="m 29.653,39.087002 c 0,4.287939 -3.476061,7.764 -7.764,7.764 -4.287939,0 -7.764,-3.476061 -7.764,-7.764 0,-4.287939 3.476061,-7.764 7.764,-7.764 4.287939,0 7.764,3.476061 7.764,7.764 z"
     style="fill:#ffffff" /><g
     id="g4013"
     style="fill:#ffffff">
	<path
   id="path4015"
   d="M 3.271,70.657 9.286,56.096 c 0.802,0.415 1.297,0.516 2.512,0.885 0.938,0.273 5.025,1.277 14.509,1.277 2.709,0 4.978,-0.084 6.876,-0.206 v 10.895 c 0,2.923 -2.37,5.294 -5.294,5.294 h -12 c -2.278,0 -4.206,-1.449 -4.951,-3.469 L 9.862,73.378 C 9.109,75.2 7.026,76.066 5.205,75.315 3.387,74.564 2.519,72.479 3.271,70.657 z"
   inkscape:connector-curvature="0"
   style="fill:#ffffff" />
</g><path
     id="path4017"
     d="m 87.352,49 c 0,0 -9.371,1.273 -14.408,1.273 -3.383,0 -8.709,-0.438 -11.85,-0.814 C 59.972,48.47 58.503,48 56.89,48 H 42.466 c -1.614,0 -3.083,0.47 -4.205,1.459 -3.141,0.377 -8.467,0.882 -11.849,0.882 -5.037,0 -14.408,-1.307 -14.408,-1.307 -1.853,0 -3.356,1.485 -3.356,3.337 0,1.854 0.955,2.632 3.767,3.469 0,0 3.181,1.149 13.84,1.149 4.326,0 7.745,-0.214 9.745,-0.463 V 69.998 C 36,73.514 38.951,76 42.466,76 H 56.89 C 60.404,76 63,73.514 63,69.999 V 56.527 c 3,0.249 5.598,0.459 9.922,0.459 10.658,0 13.954,-1.154 13.954,-1.154 2.812,-0.837 3.8,-1.622 3.8,-3.477 C 90.676,50.503 89.204,49 87.352,49 z"
     inkscape:connector-curvature="0"
     style="fill:#ffffff" /></g></svg>